<?xml version="1.0" encoding="UTF-8"?>
<svg width="352px" height="80px" viewBox="0 0 352 80" version="1.1" xmlns="http://www.w3.org/2000/svg" xmlns:xlink="http://www.w3.org/1999/xlink">
    <g id="Page-1" stroke="none" stroke-width="1" fill="none" fill-rule="evenodd">
        <g id="Desktop-HD" transform="translate(-800.000000, -823.000000)" fill="#16A34A">
            <g id="Group" transform="translate(800.000000, 823.000000)">
                <path d="M0,0 L42.137931,0 L94,80 L0,80 L0,0 Z M51,0 L145,0 L145,80 L102.862069,80 L51,0 Z" id="Logo_-_Squared"></path>
                <path d="M200.997805,45 L214,74 L207.998987,74 L204.99848,67.0018095 L191.996285,67.0018095 L188.995779,74 L183,74 L194.996792,45.0074967 L200.997805,45 Z M345,47.0156792 C346.723535,48.5414344 348.075169,50.6829744 348,53.0113233 C348.034335,54.5962023 347.37454,56.7024464 346.5,58.0120803 C345.528977,59.3650193 344.533239,60.4042206 343,61.0055156 C343.956886,61.5362674 344.307005,62.1334751 345,62.9913419 C346.045163,64.3914979 347.164762,65.9192685 347.922398,67.5007968 C349.658882,71.0080728 351.036138,72.5214434 351.908474,73.8574521 L352,74 L346,73.9837224 C345.36006,72.9634628 344.446075,72.9102218 343.909742,71.8294464 C342.833304,69.6168289 341.803182,67.5837754 340.5,65.5022488 C339.921991,64.582849 338.866655,63.6318467 338,62.9913419 C337.334948,62.5570572 336.922051,62.0703405 336.189994,62.0105622 L336,62.0047896 L333,62.0047896 L333,74 L328,74 L328,45.0140658 L339,45.0140658 C341.455349,44.9062337 343.116033,45.4037312 345,47.0156792 Z M182.490215,47.5050305 C184.149595,49.0601589 185.067122,51.2038524 184.994768,53.4991248 C185.077588,55.8054653 184.17432,57.9487718 182.490215,59.4932191 C180.720851,61.0321809 178.618889,62.0192876 176.312837,61.9997105 L175.997122,61.9907584 L169.998692,61.9907584 L169.998692,73.9789469 L165.001938,73.9789469 L165.001,45.016 L175.997122,45.0074912 C178.378709,44.9033812 180.708914,45.8919297 182.490215,47.5050305 Z M233,47.0092186 C234.723463,48.5336969 236.075165,51.1726565 236,53.4990568 C236.034334,55.0826094 235.874503,56.687867 235,57.9964049 C234.029018,59.3482116 232.533175,60.3865398 231,60.9873316 C231.956846,61.5176393 232.307034,62.1191906 233,62.9763394 C234.044785,64.3755582 235.242041,65.8971652 236,67.4771698 C237.736412,70.9815105 239.041426,72.4895714 239.908748,73.8241831 L240,73.9665965 L234,73.9789469 C233.360087,72.9595412 232.536311,73.0500056 232,71.9701348 C230.923607,69.7593691 229.803127,67.5600812 228.5,65.4802966 C227.921718,64.5619043 226.866369,63.6165985 226,62.9763394 C225.334975,62.5424182 224.922025,62.051981 224.189987,61.9916177 L224,61.9857683 L221,61.9857683 L221,73.9789469 L216,73.9789469 L216,45.014109 L227,45.014109 C229.455219,44.906566 231.116015,45.3987949 233,47.0092186 Z M265,45 L254,58.4968005 L268,73.9789469 L261,73.9665965 L247,59.9950727 L247,73.9665965 L242,73.9665965 L242,45.003944 L247,45.003944 L247,57.9973764 L248,57.9973764 L258,45 L265,45 Z M288.359187,46.8074104 C293.04304,49.2568791 295.987317,54.1243958 296,59.4392366 C296.012602,64.7540775 293.091516,69.6357429 288.41937,72.1077808 C283.418716,74.6131217 277.538721,74.6020738 272.547385,72.0779591 C267.870345,69.6618269 264.949173,64.7931391 265.00067,59.4999232 C264.995474,56.9303146 265.682868,54.4074558 266.989564,52.2003335 C268.215642,50.0735918 269.978758,48.3148333 272.096471,47.1006452 L272.473829,46.8920657 L272.473829,46.8959136 C277.47169,44.3994821 283.334202,44.3668199 288.359187,46.8074104 Z M320.000725,45 L325,45.0038938 L325,61.9876551 C324.999354,65.8340758 323.794967,68.9119317 321.500507,70.978888 C319.206048,73.0458443 316.19946,73.9750272 312.001885,73.9750272 C309.640764,74.0320633 307.151019,73.4634789 305.0029,72.4769576 C303.144029,71.6057986 301.52843,70.2675259 300.503552,68.4821054 C299.450462,66.5643687 298.951094,64.1773759 299.00377,61.9876551 L299.00377,61.9876551 L299.008,45.003 L304.003045,45.0038938 L304.003045,61.9876551 C303.94182,63.3860423 304.438976,64.7054328 305.0029,65.9853228 C305.56632,67.0505251 306.940089,67.92047 308.002465,68.4821054 C309.239001,69.1576236 310.592922,69.0133877 312,68.9814619 C313.483584,69.026348 314.668638,69.138793 316.001305,68.4821054 C317.10536,67.9313618 318.430304,67.083296 319.00087,65.9853228 C319.609788,64.5845843 320.073134,63.5144886 320.000725,61.9876551 L320.000725,61.9876551 L320.000725,45 Z M275.336804,50.9564788 C273.954969,51.6937164 272.801233,52.7959163 271.997705,54.1419528 L271.830925,54.4340772 C270.998248,55.9916008 270.575889,57.7346432 270.604345,59.4999232 C270.577647,61.2677602 271.014233,63.0114421 271.870092,64.5551873 C272.691972,66.0298985 273.915787,67.2369415 275.396987,68.0337478 C276.970591,68.8726275 278.729399,69.2968859 280.509648,69.2670206 C283.146337,69.3615128 285.708619,68.3765981 287.612158,66.5368894 C289.479418,64.6885257 290.489226,62.1349268 290.39489,59.4999232 C290.42059,57.73005 289.987618,55.9840098 289.138696,54.4340772 C288.321483,52.9506834 287.093411,51.7387184 285.604158,50.9458969 C282.376481,49.2977656 278.561125,49.3016978 275.336804,50.9564788 Z M197.997298,51.0059456 L192.996454,63.0028436 L202.998143,63.0028436 L197.997298,51.0059456 Z M333,49.0067559 L333,58.0120803 L337,58.011686 C338.263047,58.0859778 339.511362,57.3151024 340.5,56.5087825 C341.360513,55.7201862 342.056423,54.6911551 342,53.5117053 C342.084859,52.3386251 341.377318,51.2751238 340.5,50.5131383 C339.513735,49.814909 338.423233,49.0347449 337.238253,49.0090572 L337,49.0142272 L333,49.0067559 Z M225.238245,49.0009262 L225,49.0060919 L221,49.0060919 L221,57.9964049 L225,57.9964049 C226.262995,58.0706345 227.511403,57.3000119 228.5,56.4943667 C229.360477,55.7064305 230.056421,54.6775195 230,53.4990568 C230.084855,52.3269584 229.377281,51.2650947 228.5,50.5037469 C227.579524,49.8526117 226.568139,49.130163 225.473973,49.0158631 L225.238245,49.0009262 Z M173.997645,49.0035541 L169.998692,49.0035541 L169.998692,57.9946955 L174.997384,57.9946955 C176.224337,58.0698581 177.080486,57.163965 178.072613,56.4250467 C178.927342,55.6645859 179.383329,54.5406213 179.304891,53.3875925 C179.304891,50.7194207 177.36639,49.0035541 173.997645,49.0035541 Z" id="PARKOUR"></path>
                <path d="M165,10 L165,35 L179,35 L179,33 L167,33 L167,10 L165,10 Z M198.5,9.99999245 C201.769786,9.99675893 204.972181,11.0372356 207.5,13.4999925 C209.82769,15.821963 211,19.1574807 211,22.4995618 C211,25.8416429 209.82769,29.178037 207.5,31.4999925 C205.053943,33.8835636 201.699668,34.9639472 198.5,35.0047762 C195.188805,35.0470283 192.031316,33.9666448 189.5,31.4999925 C187.181613,29.1728188 186,25.838375 186,22.4995618 C186,19.1607486 187.181613,15.8271812 189.5,13.4999925 C191.949786,11.111526 195.330066,10.0031421 198.5,9.99999245 Z M198.845996,11.9976319 L198.511467,12 C195.705786,11.9385992 193.02725,12.9494786 191.044169,15 C189.080134,17.0258204 188,19.633368 188,22.5 C188,25.366632 189.035965,27.9741796 191,30 L191,30 L191.044169,30.142295 C193.027774,32.1929332 195.736613,33.0719201 198.542731,33.0098446 C201.333683,33.0726335 204.026561,32.0510726 205.988248,30 C207.993578,27.8998794 208.982361,25.207058 209,22.504877 C209.017952,19.7547381 208.029168,17.1373932 205.988248,15 C204.026263,12.9494823 201.302248,11.937289 198.511467,12 Z M243.032146,10 L243,32 L224,10 L222,10 L222,34.996595 L224,34.996595 L224,13 L243.032146,34.996595 L245,35 L245,10.003405 L243,10.003405 L243.032146,10 Z M266.5,10 C270.848933,10 274.207362,11.1730459 276.5,13.5 C281.069602,18.5833962 281.11238,26.3981346 276.562675,31.5 C274.293449,33.8558991 271.172791,35 267,35 L267,35 L258,34.9991487 L258,10 Z M274.5,14.5 C272.301777,12.4275482 269.493351,11.8751898 266.5,12 L266.5,12 L260,12 L260,33 L266.5,33 C269.42747,33.0959711 272.333419,32.5068574 274.5,30.5 C276.638938,28.4632898 278.121904,25.4819424 278,22.5027219 C278.102789,19.5496549 276.594534,16.5453525 274.5,14.5 Z M302.5,10 C305.769786,9.99676647 308.972181,11.0372431 311.5,13.5 C313.82769,15.8219706 315,19.1574883 315,22.4995694 C315,25.8416504 313.82769,29.1780445 311.5,31.5 C309.053943,33.8835712 305.699668,34.9639547 302.5,35.0047837 C299.188805,35.0470359 296.031316,33.9666523 293.5,31.5 C291.181613,29.1728264 290,25.8383825 290,22.4995694 C290,19.1607562 291.181613,15.8271887 293.5,13.5 C295.949786,11.1115335 299.330066,10.0031496 302.5,10 Z M302.845996,11.9976394 L302.511467,12.0000075 C299.705786,11.9386067 297.02725,12.9494861 295.044169,15.0000075 C293.080134,17.0258279 292,19.6333756 292,22.5000075 C292,25.3666395 293.035965,27.9741872 295,30.0000075 L295,30.0000075 L295.044169,30.1423026 C297.027774,32.1929407 299.736613,33.0719277 302.542731,33.0098521 C305.333683,33.0726411 308.026561,32.0510802 309.988248,30.0000075 C311.993578,27.899887 312.982361,25.2070655 313,22.5048845 C313.017952,19.7547457 312.029168,17.1374007 309.988248,15.0000075 C308.026263,12.9494898 305.302248,11.9372965 302.511467,12.0000075 Z M345,32 L326,10 L324,10 L324,34.996595 L326,34.996595 L326,13 L345,34.996595 L347,35 L347,10.003405 L345,10 L345,32 Z" id="LONDON"></path>
            </g>
        </g>
    </g>
</svg>